<?xml version="1.0" encoding="UTF-8" standalone="no"?>
<svg
   xmlns:dc="http://purl.org/dc/elements/1.1/"
   xmlns:cc="http://creativecommons.org/ns#"
   xmlns:rdf="http://www.w3.org/1999/02/22-rdf-syntax-ns#"
   xmlns:svg="http://www.w3.org/2000/svg"
   xmlns="http://www.w3.org/2000/svg"
   xmlns:sodipodi="http://sodipodi.sourceforge.net/DTD/sodipodi-0.dtd"
   xmlns:inkscape="http://www.inkscape.org/namespaces/inkscape"
   height="512"
   viewBox="0 0 512 512"
   width="512"
   version="1.1"
   id="svg6"
   sodipodi:docname="contactDarkMode.svg"
   inkscape:version="0.92.4 (5da689c313, 2019-01-14)">
  <metadata
     id="metadata12">
    <rdf:RDF>
      <cc:Work
         rdf:about="">
        <dc:format>image/svg+xml</dc:format>
        <dc:type
           rdf:resource="http://purl.org/dc/dcmitype/StillImage" />
        <dc:title />
      </cc:Work>
    </rdf:RDF>
  </metadata>
  <defs
     id="defs10" />
  <sodipodi:namedview
     pagecolor="#ffffff"
     bordercolor="#666666"
     borderopacity="1"
     objecttolerance="10"
     gridtolerance="10"
     guidetolerance="10"
     inkscape:pageopacity="0"
     inkscape:pageshadow="2"
     inkscape:window-width="2560"
     inkscape:window-height="1377"
     id="namedview8"
     showgrid="false"
     inkscape:zoom="0.61458333"
     inkscape:cx="-199.48358"
     inkscape:cy="-43.397683"
     inkscape:window-x="-8"
     inkscape:window-y="-8"
     inkscape:window-maximized="1"
     inkscape:current-layer="svg6" />
  <path
     d="m 478.5,349.88889 c -34.16667,0 -67.22223,-5.55556 -98.05556,-15.55556 C 370.72222,331 359.88889,333.5 352.38889,341 l -43.61112,54.72223 C 230.16666,358.22223 156.55555,287.38889 117.38889,206 l 54.16666,-46.11111 c 7.5,-7.77778 9.72222,-18.61112 6.66667,-28.33333 -10.27778,-30.83334 -15.55556,-63.888892 -15.55556,-98.055559 0,-15 -12.5,-27.5 -27.5,-27.5 H 39.055555 c -15,0 -33.055556,6.666667 -33.055556,27.5 C 5.999999,291.55556 220.72222,506 478.5,506 498.22221,506 506,488.5 506,473.22223 v -95.83334 c 0,-15 -12.5,-27.5 -27.5,-27.5 z"
     id="path4"
     inkscape:connector-curvature="0"
     style="fill:#ffffff;fill-opacity:1;stroke-width:27.77777863" />
</svg>
