<?xml version="1.0" encoding="UTF-8" standalone="no"?>
<!-- Created with Inkscape (http://www.inkscape.org/) -->

<svg
   xmlns:dc="http://purl.org/dc/elements/1.1/"
   xmlns:cc="http://creativecommons.org/ns#"
   xmlns:rdf="http://www.w3.org/1999/02/22-rdf-syntax-ns#"
   xmlns:svg="http://www.w3.org/2000/svg"
   xmlns="http://www.w3.org/2000/svg"
   xmlns:sodipodi="http://sodipodi.sourceforge.net/DTD/sodipodi-0.dtd"
   xmlns:inkscape="http://www.inkscape.org/namespaces/inkscape"
   width="2000"
   height="250"
   viewBox="0 0 529.16665 66.145835"
   version="1.1"
   id="svg8"
   inkscape:version="0.92.4 (5da689c313, 2019-01-14)"
   sodipodi:docname="footerDownload.svg"
   inkscape:export-filename="D:\programming\github\webDevelopment\niceSize\docs\img\footerDownload.png"
   inkscape:export-xdpi="383.99997"
   inkscape:export-ydpi="383.99997">
  <defs
     id="defs2">
    <clipPath
       clipPathUnits="userSpaceOnUse"
       id="clipPath938">
      <path
         inkscape:connector-curvature="0"
         d="M 81.08365,271.10326 H 21.554051 c -3.656201,0 -6.618501,2.98752 -6.618501,6.67586 v 40.05643 c 0,3.689 2.9623,6.67653 6.618501,6.67653 h 23.149298 v 6.67583 h -6.6123 v 6.67587 h 26.4555 v -6.67587 h -6.6123 v -6.67583 H 81.08365 c 3.6561,0 6.6123,-2.98753 6.6123,-6.67653 v -40.05643 c 0,-3.68834 -2.9562,-6.67586 -6.6123,-6.67586 z m 0,46.73229 H 21.554051 V 277.77912 H 81.08365 Z"
         id="path940"
         style="fill:#036dc5;fill-opacity:1;stroke-width:1.66129076" />
    </clipPath>
    <clipPath
       clipPathUnits="userSpaceOnUse"
       id="clipPath957">
      <rect
         style="opacity:1;fill:#037add;fill-opacity:1;stroke:none;stroke-width:0;stroke-linecap:round;stroke-linejoin:round;stroke-miterlimit:4;stroke-dasharray:none;stroke-opacity:1;paint-order:normal"
         id="rect959"
         width="786.20807"
         height="205.53368"
         x="-244.41446"
         y="287.58398" />
    </clipPath>
    <clipPath
       clipPathUnits="userSpaceOnUse"
       id="clipPath976">
      <rect
         style="opacity:1;fill:#037add;fill-opacity:1;stroke:none;stroke-width:0;stroke-linecap:round;stroke-linejoin:round;stroke-miterlimit:4;stroke-dasharray:none;stroke-opacity:1;paint-order:normal"
         id="rect978"
         width="89.775574"
         height="35.14257"
         x="140.27205"
         y="261.85742" />
    </clipPath>
    <clipPath
       clipPathUnits="userSpaceOnUse"
       id="clipPath995">
      <rect
         style="opacity:1;fill:#037add;fill-opacity:1;stroke:none;stroke-width:0;stroke-linecap:round;stroke-linejoin:round;stroke-miterlimit:4;stroke-dasharray:none;stroke-opacity:1;paint-order:normal"
         id="rect997"
         width="89.331223"
         height="26.458334"
         x="290.80273"
         y="230.85416" />
    </clipPath>
    <clipPath
       clipPathUnits="userSpaceOnUse"
       id="clipPath1014">
      <rect
         style="opacity:1;fill:#037add;fill-opacity:1;stroke:none;stroke-width:0;stroke-linecap:round;stroke-linejoin:round;stroke-miterlimit:4;stroke-dasharray:none;stroke-opacity:1;paint-order:normal"
         id="rect1016"
         width="105.15786"
         height="47.625"
         x="463.45883"
         y="230.85416" />
    </clipPath>
    <clipPath
       clipPathUnits="userSpaceOnUse"
       id="clipPath1033">
      <rect
         style="opacity:1;fill:#037add;fill-opacity:1;stroke:none;stroke-width:0;stroke-linecap:round;stroke-linejoin:round;stroke-miterlimit:4;stroke-dasharray:none;stroke-opacity:1;paint-order:normal"
         id="rect1035"
         width="260.61484"
         height="89.324524"
         x="-176.60635"
         y="0.021959169"
         transform="rotate(-90)" />
    </clipPath>
  </defs>
  <sodipodi:namedview
     id="base"
     pagecolor="#ffffff"
     bordercolor="#666666"
     borderopacity="1.0"
     inkscape:pageopacity="0.0"
     inkscape:pageshadow="2"
     inkscape:zoom="0.49497475"
     inkscape:cx="573.8632"
     inkscape:cy="298.06978"
     inkscape:document-units="px"
     inkscape:current-layer="layer1"
     showgrid="false"
     units="px"
     inkscape:window-width="2560"
     inkscape:window-height="1377"
     inkscape:window-x="-8"
     inkscape:window-y="-8"
     inkscape:window-maximized="1" />
  <metadata
     id="metadata5">
    <rdf:RDF>
      <cc:Work
         rdf:about="">
        <dc:format>image/svg+xml</dc:format>
        <dc:type
           rdf:resource="http://purl.org/dc/dcmitype/StillImage" />
        <dc:title />
      </cc:Work>
    </rdf:RDF>
  </metadata>
  <g
     inkscape:label="Ebene 1"
     inkscape:groupmode="layer"
     id="layer1"
     transform="translate(0,-230.85415)">
    <rect
       style="opacity:1;fill:#036dc5;fill-opacity:1;stroke:none;stroke-width:0;stroke-linecap:round;stroke-linejoin:round;stroke-miterlimit:4;stroke-dasharray:none;stroke-opacity:1;paint-order:normal"
       id="rect815"
       width="529.16669"
       height="66.145836"
       x="0"
       y="230.85414"
       clip-path="url(#clipPath938)" />
    <path
       inkscape:connector-curvature="0"
       d="m 355.64512,205.93374 h -16.28213 c -2.80886,0 -5.08807,2.30089 -5.08807,5.13558 v 34.92255 c 0,2.83467 2.27921,5.13557 5.08807,5.13557 h 16.28213 c 2.80885,0 5.08814,-2.3009 5.08814,-5.13557 v -34.92255 c 0,-2.83469 -2.27929,-5.13558 -5.08814,-5.13558 z m -8.14121,43.13932 c -1.68928,0 -3.05271,-1.37619 -3.05271,-3.08119 0,-1.70538 1.36343,-3.08157 3.05271,-3.08157 1.68921,0 3.05314,1.37619 3.05314,3.08157 0,1.705 -1.36393,3.08119 -3.05314,3.08119 z m 9.15892,-8.21715 h -18.31748 v -28.75942 h 18.31748 z"
       id="path2-7-5-4"
       style="fill:#036dc5;fill-opacity:1;stroke-width:1.02237141"
       clip-path="url(#clipPath995)"
       transform="translate(7.7257601)" />
    <g
       transform="matrix(0.17197917,0,0,0.1735828,42.034195,180.93451)"
       id="g5-2-2-6"
       style="fill:#036dc5;fill-opacity:1"
       clip-path="url(#clipPath957)">
      <path
         inkscape:connector-curvature="0"
         d="M 56.1,356.1 V 122.5 h 399.8 v 233.6 h 26.9 V 117.9 c 0,-12.3 -10,-22.3 -22.3,-22.3 h -409 c -12.3,0 -22.3,10 -22.3,22.3 v 238.2 z"
         id="XMLID_5_-2-6-94"
         style="fill:#036dc5;fill-opacity:1" />
      <path
         inkscape:connector-curvature="0"
         d="m 6,369.5 v 22 c 0,13.8 11.2,24.9 24.9,24.9 h 450.2 c 13.8,0 24.9,-11.2 24.9,-24.9 v -22 z m 66.6,33.3 c -5.4,0 -9.9,-4.4 -9.9,-9.9 0,-5.4 4.4,-9.9 9.9,-9.9 5.4,0 9.9,4.4 9.9,9.9 -0.1,5.5 -4.5,9.9 -9.9,9.9 z m 26.5,0 c -5.4,0 -9.9,-4.4 -9.9,-9.9 0,-5.4 4.4,-9.9 9.9,-9.9 5.4,0 9.9,4.4 9.9,9.9 0,5.5 -4.4,9.9 -9.9,9.9 z m 26.6,0 c -5.4,0 -9.9,-4.4 -9.9,-9.9 0,-5.4 4.4,-9.9 9.9,-9.9 5.4,0 9.9,4.4 9.9,9.9 -0.1,5.5 -4.5,9.9 -9.9,9.9 z"
         id="path3-9-0-05"
         style="fill:#036dc5;fill-opacity:1" />
    </g>
    <g
       transform="matrix(0,0.45326811,-0.44908062,0,450.29408,256.50207)"
       id="Livello_8-0-6"
       style="fill:#036dc5;fill-opacity:1"
       clip-path="url(#clipPath1033)">
      <path
         inkscape:connector-curvature="0"
         d="M 115.232,128.846 H 28.077 V 12.953 h 87.153 z m -47.028,6.611 c 0,-1.904 1.543,-3.445 3.448,-3.445 1.907,0 3.451,1.542 3.451,3.445 0,1.911 -1.543,3.453 -3.451,3.453 -1.903,0 -3.448,-1.544 -3.448,-3.453 M 126.496,5.441 h -0.006 c 0,-0.047 0.006,-0.091 0.006,-0.138 0,-2.929 -2.374,-5.303 -5.304,-5.303 -0.047,0 -0.093,0.004 -0.14,0.006 V 0 H 22.256 V 0.006 C 22.21,0.004 22.165,0 22.117,0 c -2.93,0 -5.304,2.374 -5.304,5.304 0,0.047 0.006,0.091 0.007,0.138 h -0.007 v 130.523 h 0.142 c -10e-4,0.051 -0.01,0.095 -0.01,0.144 0,2.923 2.369,5.291 5.294,5.291 0.046,0 0.092,-0.006 0.138,-0.008 v 0.008 h 98.56 v -0.008 c 0.047,0.002 0.091,0.008 0.14,0.008 2.923,0 5.294,-2.368 5.294,-5.291 0,-0.049 -0.008,-0.093 -0.011,-0.144 h 0.141 z"
         id="path2-2-7-29"
         style="fill:#036dc5;fill-opacity:1" />
    </g>
    <path
       inkscape:connector-curvature="0"
       d="m 496.86008,232.85529 c 0,-4.0353 -1.8694,-7.62681 -4.7835,-9.94962 l -1.5004,-9.07767 h -12.5676 l -1.5004,9.07767 c -2.9142,2.32281 -4.7835,5.91432 -4.7835,9.94962 0,4.03527 1.8693,7.6268 4.7835,9.94962 l 1.5004,9.07767 h 12.5676 l 1.5004,-9.07767 c 2.9141,-2.32282 4.7835,-5.91435 4.7835,-9.94962 z m -21.9936,0 c 0,-5.25633 4.2179,-9.51364 9.4257,-9.51364 5.2078,0 9.4258,4.25731 9.4258,9.51364 0,5.25633 -4.218,9.51364 -9.4258,9.51364 -5.2078,0 -9.4257,-4.25731 -9.4257,-9.51364 z"
       id="path4-5-77-0"
       style="fill:#036dc5;fill-opacity:1;stroke-width:0.78913331"
       clip-path="url(#clipPath1014)" />
    <path
       inkscape:connector-curvature="0"
       d="m 180.26261,278.67945 h -16.28213 c -2.80886,0 -5.08807,2.30089 -5.08807,5.13558 v 34.92255 c 0,2.83467 2.27921,5.13557 5.08807,5.13557 h 16.28213 c 2.80885,0 5.08814,-2.3009 5.08814,-5.13557 v -34.92255 c 0,-2.83469 -2.27929,-5.13558 -5.08814,-5.13558 z m -8.14121,43.13932 c -1.68928,0 -3.05271,-1.37619 -3.05271,-3.08119 0,-1.70538 1.36343,-3.08157 3.05271,-3.08157 1.68921,0 3.05314,1.37619 3.05314,3.08157 0,1.705 -1.36393,3.08119 -3.05314,3.08119 z m 9.15892,-8.21715 H 162.96284 V 284.8422 h 18.31748 z"
       id="path2-7-5-4-2"
       style="fill:#036dc5;fill-opacity:1;stroke-width:1.02237141"
       clip-path="url(#clipPath976)" />
  </g>
</svg>
