<?xml version="1.0" encoding="UTF-8" standalone="no"?>
<!-- Generator: Adobe Illustrator 16.0.0, SVG Export Plug-In . SVG Version: 6.00 Build 0)  -->

<svg
   xmlns:dc="http://purl.org/dc/elements/1.1/"
   xmlns:cc="http://creativecommons.org/ns#"
   xmlns:rdf="http://www.w3.org/1999/02/22-rdf-syntax-ns#"
   xmlns:svg="http://www.w3.org/2000/svg"
   xmlns="http://www.w3.org/2000/svg"
   xmlns:sodipodi="http://sodipodi.sourceforge.net/DTD/sodipodi-0.dtd"
   xmlns:inkscape="http://www.inkscape.org/namespaces/inkscape"
   style="isolation:isolate"
   viewBox="0 0 511.999 511.999"
   width="438.54901"
   height="438.54901"
   version="1.1"
   id="svg4"
   sodipodi:docname="github.svg"
   inkscape:version="0.92.4 (5da689c313, 2019-01-14)">
  <metadata
     id="metadata10">
    <rdf:RDF>
      <cc:Work
         rdf:about="">
        <dc:format>image/svg+xml</dc:format>
        <dc:type
           rdf:resource="http://purl.org/dc/dcmitype/StillImage" />
        <dc:title />
      </cc:Work>
    </rdf:RDF>
  </metadata>
  <defs
     id="defs8" />
  <sodipodi:namedview
     pagecolor="#ffffff"
     bordercolor="#666666"
     borderopacity="1"
     objecttolerance="10"
     gridtolerance="10"
     guidetolerance="10"
     inkscape:pageopacity="0"
     inkscape:pageshadow="2"
     inkscape:window-width="2560"
     inkscape:window-height="1377"
     id="namedview6"
     showgrid="false"
     inkscape:zoom="0.53813826"
     inkscape:cx="-186.75498"
     inkscape:cy="219.27451"
     inkscape:window-x="-8"
     inkscape:window-y="-8"
     inkscape:window-maximized="1"
     inkscape:current-layer="svg4" />
  <path
     d="M 477.65839,133.76163 C 454.7662,94.53856 423.71441,63.485605 384.49485,40.595754 345.26945,17.704736 302.44701,6.2621462 255.99716,6.2621462 c -46.444,0 -89.28045,11.4460918 -128.49768,34.3336078 C 88.276414,63.484437 57.225794,94.53856 34.333608,133.76163 11.444925,172.98352 0,215.81414 0,262.25231 c 0,55.78277 16.27484,105.94407 48.832693,150.49673 32.55435,44.55617 74.609747,75.38731 126.162697,92.4969 6.00091,1.11379 10.44322,0.3304 13.3316,-2.33031 2.88954,-2.66422 4.33256,-6.00091 4.33256,-9.99607 0,-0.66664 -0.0572,-6.66404 -0.16812,-17.99923 -0.11441,-11.33518 -0.16812,-21.22383 -0.16812,-29.6613 l -7.66692,1.32627 c -4.88829,0.89547 -11.05498,1.2749 -18.50008,1.16749 -7.44159,-0.1039 -15.16689,-0.88379 -23.16538,-2.33381 -8.00199,-1.43719 -15.44475,-4.77038 -22.33412,-9.99257 -6.88587,-5.22219 -11.77416,-12.05786 -14.6637,-20.49649 l -3.33319,-7.67042 c -2.22174,-5.10661 -5.719547,-10.77946 -10.498092,-16.99752 -4.778545,-6.2239 -9.610795,-10.44322 -14.499085,-12.66496 l -2.333817,-1.67068 c -1.555099,-1.11028 -2.998119,-2.4494 -4.332563,-4.00333 -1.333276,-1.55393 -2.331482,-3.10903 -2.99812,-4.66646 -0.667805,-1.55861 -0.114414,-2.83701 1.666012,-3.83989 1.780425,-1.00287 4.998033,-1.48972 9.666834,-1.48972 l 6.664045,0.99588 c 4.444643,0.89079 9.942363,3.55151 16.500166,7.99848 6.5543,4.44348 11.94228,10.22023 16.1651,17.32792 5.11361,9.11345 11.27447,16.05769 18.50008,20.83623 7.21977,4.77855 14.49908,7.16374 21.83093,7.16374 7.33185,0 13.66433,-0.55573 18.99977,-1.66135 5.3296,-1.11145 10.32997,-2.78213 14.99877,-5.0027 1.99991,-14.89486 7.4451,-26.33745 16.33088,-34.33594 -12.66496,-1.33094 -24.05151,-3.33553 -34.16549,-6.00091 -10.10815,-2.66889 -20.5537,-7.00028 -31.32965,-13.00586 -10.78179,-5.99741 -19.72595,-13.44484 -26.83481,-22.32946 -7.11002,-8.88928 -12.94515,-20.55953 -17.497202,-35.00024 -4.554386,-14.44655 -6.832164,-31.11133 -6.832164,-49.99902 0,-26.89318 8.779546,-49.77836 26.335116,-68.66839 -8.22381,-20.21862 -7.44743,-42.88432 2.33149,-67.99474 6.44455,-2.00225 16.00164,-0.49968 28.6666,4.49835 12.66729,5.00037 21.94184,9.2839 27.83301,12.83541 5.89116,3.55034 10.61134,6.55897 14.16752,8.99903 20.67044,-5.77559 42.00169,-8.66396 63.99958,-8.66396 21.99789,0 43.3338,2.88837 64.00542,8.66396 l 12.66612,-7.99616 c 8.66163,-5.33543 18.89002,-10.22489 30.66068,-14.66953 11.77766,-4.44231 20.78369,-5.66584 27.00876,-3.66359 9.99607,25.11158 10.88687,47.77611 2.66072,67.99474 17.55441,18.89002 26.33745,41.78104 26.33745,68.66838 0,18.88769 -2.28595,35.60501 -6.83333,50.16247 -4.55322,14.55979 -10.43855,26.21837 -17.65832,35.00024 -7.22794,8.78071 -16.22931,16.16977 -27.00526,22.16601 -10.77829,6.00091 -21.22734,10.3323 -31.33549,13.00119 -10.11281,2.66889 -21.49936,4.67464 -34.16432,6.00791 11.55117,9.99607 17.32792,25.77473 17.32792,47.32897 v 70.32622 c 0,3.99516 1.38932,7.33068 4.17028,9.99607 2.77747,2.66071 7.16373,3.4441 13.16464,2.32914 51.55996,-17.10726 93.61536,-47.93956 126.16854,-92.49573 32.54968,-44.55266 48.83036,-94.71396 48.83036,-150.49673 -0.0117,-46.43233 -11.46244,-89.25945 -34.34061,-128.48134 z"
     id="path2"
     inkscape:connector-curvature="0"
     style="fill:#037add;stroke-width:1.16749215;fill-opacity:1" />
</svg>
